<?xml version="1.0" standalone="no"?>
<!DOCTYPE svg PUBLIC "-//W3C//DTD SVG 20010904//EN"
 "http://www.w3.org/TR/2001/REC-SVG-20010904/DTD/svg10.dtd">
<svg version="1.0" xmlns="http://www.w3.org/2000/svg"
 width="1350.000000pt" height="621.000000pt" viewBox="0 0 1350.000000 621.000000"
 preserveAspectRatio="xMidYMid meet">
<metadata>
Created by potrace 1.10, written by Peter Selinger 2001-2011
</metadata>
<g transform="translate(0.000000,621.000000) scale(0.100000,-0.100000)"
fill="#000000" stroke="none">
<path d="M3166 4210 c-5 -34 -10 -39 -29 -37 -17 2 -22 -3 -22 -23 0 -20 5
-25 25 -25 22 0 25 -5 28 -36 3 -30 -2 -41 -27 -62 -17 -14 -32 -36 -34 -49
-2 -19 3 -23 28 -23 28 0 30 3 33 38 4 49 30 47 46 -3 9 -29 16 -36 44 -38 22
-2 32 1 32 11 0 15 -39 62 -58 68 -6 2 -14 22 -17 44 -7 39 -6 41 26 50 43 13
48 32 12 47 -34 15 -43 26 -43 56 0 15 -6 22 -19 22 -14 0 -20 -10 -25 -40z"/>
<path d="M5681 3939 c-12 -23 -21 -46 -21 -51 0 -7 -21 -56 -75 -173 -7 -16
-43 -102 -79 -190 -69 -166 -71 -169 -101 -221 -22 -38 -14 -67 17 -62 23 3
37 27 78 123 12 28 25 59 30 70 5 11 12 30 15 43 6 21 11 22 121 24 63 1 122
2 131 2 10 1 23 -10 29 -24 29 -59 68 -159 79 -197 4 -14 16 -25 31 -28 13 -3
35 -7 48 -10 14 -3 29 1 36 11 11 12 9 20 -8 44 -12 16 -22 34 -22 41 0 6 -6
23 -13 37 -8 15 -21 43 -29 62 -27 63 -50 115 -64 143 -8 16 -14 35 -14 42 0
7 -8 28 -17 47 -9 18 -22 45 -30 60 -7 14 -13 33 -13 41 0 8 -7 20 -15 27 -8
7 -15 22 -15 34 0 11 -7 30 -15 40 -8 11 -15 29 -15 41 0 12 -11 32 -24 44
l-25 23 -20 -43z m21 -156 c10 -9 18 -25 18 -36 0 -10 6 -31 14 -45 33 -66 56
-121 56 -138 0 -18 -8 -19 -105 -19 -109 0 -117 4 -95 43 5 9 16 35 25 57 9
22 23 55 31 73 8 18 14 41 14 51 0 33 15 39 42 14z"/>
<path d="M8940 3963 c-72 -23 -109 -45 -159 -93 -56 -54 -91 -103 -91 -127 -1
-10 -7 -29 -15 -43 -31 -53 -17 -197 26 -270 5 -8 13 -24 18 -36 5 -11 36 -45
70 -75 206 -187 514 -95 605 182 26 79 15 189 -25 259 -5 8 -13 24 -18 35 -12
27 -100 112 -137 132 -96 50 -190 63 -274 36z m211 -73 c57 -40 84 -73 119
-149 16 -35 20 -64 20 -145 0 -94 -2 -107 -30 -161 -38 -74 -68 -106 -132
-139 -117 -61 -247 -7 -327 134 -28 50 -43 159 -30 230 19 106 55 168 129 222
46 34 61 37 146 34 56 -2 79 -8 105 -26z"/>
<path d="M11035 3961 c-27 -9 -63 -24 -80 -33 -42 -23 -125 -97 -136 -122 -5
-12 -13 -28 -18 -36 -34 -56 -43 -100 -39 -186 4 -85 10 -105 54 -186 17 -31
132 -138 148 -138 6 0 25 -8 41 -17 22 -12 55 -17 125 -17 95 0 128 9 205 57
29 18 106 99 116 122 5 11 13 27 18 35 19 33 41 117 41 158 0 42 -28 141 -53
185 -22 41 -112 128 -147 144 -123 56 -187 64 -275 34z m220 -75 c39 -28 105
-106 105 -124 0 -6 7 -23 15 -38 10 -20 15 -60 15 -127 0 -89 -3 -104 -31
-160 -37 -76 -67 -108 -131 -141 -67 -35 -129 -35 -198 1 -46 24 -120 97 -120
118 0 5 -6 16 -13 24 -8 9 -20 49 -27 89 -31 170 49 336 185 384 11 4 52 6 90
5 59 -2 76 -7 110 -31z"/>
<path d="M4900 3952 c-17 -6 -11 -23 15 -44 l25 -19 2 -322 3 -322 45 4 c25 1
47 5 49 7 4 3 2 203 -3 274 -1 25 -1 25 94 26 133 2 191 33 240 130 25 48 25
99 1 147 -26 51 -39 65 -86 96 -39 25 -44 26 -207 26 -92 0 -172 -1 -178 -3z
m332 -63 c43 -31 68 -80 68 -136 0 -33 -5 -55 -15 -63 -8 -7 -15 -18 -15 -24
0 -6 -16 -22 -36 -36 -43 -29 -172 -48 -189 -27 -6 7 -9 69 -7 159 4 167 -4
156 102 149 42 -2 74 -10 92 -22z"/>
<path d="M6012 3941 c-3 -7 -1 -21 5 -30 11 -17 29 -18 143 -10 l65 4 3 -328
2 -328 52 3 51 3 1 320 1 320 97 0 c79 0 101 3 115 17 35 36 6 40 -267 42
-216 1 -264 -1 -268 -13z"/>
<path d="M6767 3953 l-87 -4 2 -352 3 -352 40 3 c22 2 45 8 50 12 6 5 7 61 3
157 -8 160 -2 182 41 168 18 -6 131 -144 131 -161 0 -3 14 -23 30 -44 17 -21
30 -41 30 -44 0 -7 6 -15 42 -58 28 -32 99 -46 117 -24 10 12 2 27 -39 78 -29
35 -54 70 -58 78 -3 8 -32 49 -63 91 -32 42 -55 79 -52 83 4 3 16 6 28 6 35 0
100 54 124 102 34 70 25 126 -31 197 -47 61 -106 73 -311 64z m211 -65 c17
-11 32 -25 32 -33 0 -7 7 -18 15 -25 9 -8 15 -30 15 -60 0 -36 -7 -56 -30 -88
-41 -57 -58 -63 -153 -60 -78 3 -82 4 -81 26 0 12 1 76 2 141 2 137 -4 129
102 123 41 -3 77 -11 98 -24z"/>
<path d="M9562 3947 c-9 -10 -4 -20 20 -42 l30 -29 -3 -307 c-4 -334 -3 -343
46 -321 l25 12 -1 177 c-1 98 -4 222 -8 276 -8 120 4 126 72 35 44 -60 69 -91
120 -148 12 -14 45 -52 72 -85 28 -32 57 -66 65 -75 41 -44 117 -135 132 -158
20 -31 44 -46 53 -33 3 6 7 167 8 358 l2 348 -24 3 c-13 2 -28 -1 -33 -6 -8
-8 -11 -323 -4 -477 1 -37 -26 -46 -41 -13 -6 13 -57 77 -113 143 -56 66 -117
138 -135 160 -19 22 -50 58 -70 80 -19 22 -45 55 -58 72 -19 29 -27 33 -69 33
-25 0 -53 2 -61 5 -7 3 -19 0 -25 -8z"/>
<path d="M7372 3603 l3 -348 53 0 54 0 -1 345 0 345 -56 3 -55 3 2 -348z"/>
<path d="M7713 3868 c1 -46 0 -199 -1 -342 -3 -224 -2 -260 12 -274 12 -13 20
-13 40 -4 25 11 25 11 21 129 -10 264 -14 483 -9 483 10 0 43 -44 44 -57 0 -7
7 -29 16 -50 9 -21 22 -53 30 -71 7 -18 20 -48 29 -67 8 -19 21 -50 29 -67 8
-18 29 -64 46 -103 17 -38 38 -86 47 -105 35 -82 38 -85 78 -92 52 -8 73 13
50 49 -14 20 -14 26 2 57 49 94 122 249 166 349 9 21 17 44 17 52 0 13 38 41
45 33 1 -2 -1 -70 -6 -152 -5 -81 -8 -200 -7 -265 l3 -116 53 0 54 0 -1 345 0
345 -53 3 -53 2 -77 -157 c-67 -139 -101 -211 -153 -328 -8 -16 -16 -38 -19
-47 -3 -10 -10 -18 -16 -18 -9 0 -20 20 -54 105 -7 17 -21 48 -30 70 -10 22
-24 55 -32 73 -25 60 -46 107 -60 134 -8 14 -14 33 -14 41 0 8 -7 20 -15 27
-8 7 -15 21 -15 32 0 10 -7 30 -16 43 -15 23 -23 25 -84 25 l-68 0 1 -82z"/>
<path d="M10432 3603 l3 -348 54 0 53 0 2 348 1 347 -58 0 -57 0 2 -347z"/>
<path d="M3112 3898 c7 -51 120 -62 158 -16 10 13 16 26 13 30 -2 5 -42 8 -89
8 -83 0 -85 -1 -82 -22z"/>
<path d="M2830 3820 c-13 -24 -28 -25 -52 -4 -19 18 -18 19 -34 -34 -3 -9 -14
-11 -38 -7 -31 6 -34 4 -44 -24 -7 -20 -18 -31 -30 -31 -21 0 -32 -18 -32 -51
0 -23 -15 -25 -24 -4 -7 20 -32 19 -40 -1 -8 -20 -26 -9 -26 17 0 25 -27 25
-35 -1 -9 -27 -20 -25 -43 7 -20 28 -42 25 -42 -8 0 -26 -26 -24 -33 3 -6 22
-7 22 -37 -7 -30 -29 -32 -29 -45 -11 -18 23 -45 15 -38 -12 6 -25 -11 -36
-27 -17 -7 8 -24 15 -37 15 -22 0 -24 -3 -19 -24 8 -31 -10 -43 -33 -22 -22
20 -31 12 -31 -31 0 -34 -8 -41 -27 -22 -19 19 -41 4 -36 -25 8 -38 -3 -61
-22 -46 -8 6 -19 9 -25 5 -15 -9 -12 -33 7 -43 25 -15 9 -40 -21 -35 -21 4
-26 2 -26 -16 0 -12 6 -24 14 -27 27 -10 27 -34 1 -44 -32 -12 -32 -24 2 -48
28 -20 28 -20 8 -42 -16 -18 -17 -23 -5 -30 8 -6 21 -10 28 -10 7 0 12 -15 12
-40 0 -29 4 -40 15 -40 21 0 19 -13 -4 -27 -10 -6 -21 -21 -24 -33 -5 -20 -3
-21 33 -15 36 6 42 3 80 -35 25 -25 47 -39 56 -36 19 7 56 -30 52 -52 -5 -25
-34 -26 -57 -1 -24 26 -44 16 -35 -18 5 -19 12 -21 70 -21 60 1 66 -1 112 -39
l48 -41 29 22 c40 28 89 46 155 56 30 5 69 13 85 19 149 51 1083 46 1182 -7
12 -7 39 -12 61 -12 39 0 109 -26 146 -55 29 -22 47 -18 90 20 24 22 48 35 65
35 35 0 43 8 31 30 -15 28 -1 60 26 60 15 0 39 14 60 35 38 39 77 53 98 36 15
-13 26 -5 26 21 0 10 -11 24 -25 30 -31 14 -32 26 -2 30 14 2 21 9 20 21 -2 9
-4 25 -5 34 -2 12 5 19 20 21 26 4 29 29 5 48 -17 13 -16 16 15 42 33 28 34
42 1 42 -28 0 -33 20 -10 36 12 8 21 24 21 35 0 14 -7 19 -30 19 -33 0 -38 11
-15 30 8 7 15 19 15 27 0 19 -27 28 -44 14 -22 -19 -29 5 -11 33 9 14 14 30
10 36 -9 15 -41 12 -55 -5 -7 -8 -17 -12 -22 -9 -6 4 -6 10 1 17 16 16 13 47
-5 54 -8 3 -20 1 -27 -6 -21 -21 -40 -13 -33 14 8 31 -20 47 -39 22 -14 -20
-34 -8 -32 18 2 25 -40 34 -49 11 -9 -24 -23 -19 -35 10 l-10 27 -25 -24 c-25
-24 -26 -24 -40 -5 -8 11 -14 23 -14 28 0 19 -21 6 -31 -18 -9 -25 -11 -26
-28 -10 -22 20 -31 20 -46 -1 -12 -16 -16 -16 -40 -3 -24 13 -28 13 -36 -3
-17 -29 -29 -19 -29 24 0 39 -2 41 -25 37 -17 -4 -25 -1 -25 9 0 8 -5 23 -10
34 -9 16 -14 17 -32 6 -15 -8 -22 -9 -25 -1 -2 6 -10 20 -18 30 -12 16 -17 17
-34 7 -27 -17 -41 -16 -41 1 0 26 -21 29 -50 8 l-28 -21 -15 22 c-14 21 -15
21 -34 5 -24 -22 -37 -23 -54 -2 -12 15 -15 14 -30 -5 -16 -19 -21 -20 -45 -9
-19 9 -28 10 -31 2 -2 -6 -10 -20 -18 -30 -13 -18 -15 -17 -29 19 -20 45 -40
47 -61 7 -19 -37 -42 -38 -56 -2 -10 25 -12 26 -23 10 -16 -22 -32 -23 -40 -3
-7 20 -40 19 -57 -1 -11 -14 -14 -13 -30 7 -17 22 -17 22 -45 5 -25 -17 -28
-17 -39 -2 -16 22 -32 20 -45 -4z m260 -76 c25 -3 48 -9 52 -13 4 -3 4 -49 0
-101 l-7 -95 -130 -6 c-132 -7 -255 -26 -311 -49 -63 -27 -78 5 -46 97 55 156
182 204 442 167z m476 -1 c58 -14 124 -61 149 -108 12 -22 25 -66 29 -98 8
-69 -3 -77 -67 -54 -68 25 -163 40 -297 46 l-124 6 -14 89 c-7 48 -11 94 -8
102 3 8 21 14 43 15 21 0 47 4 58 9 24 11 174 6 231 -7z m-1001 -133 c3 -6 -1
-13 -9 -16 -9 -4 -15 -19 -16 -42 -2 -117 -1 -116 -50 -130 -25 -8 -58 -20
-75 -27 -16 -7 -49 -21 -72 -31 -24 -10 -43 -21 -43 -26 0 -4 -6 -8 -13 -8 -8
0 -24 -9 -37 -20 -13 -11 -27 -20 -32 -20 -4 0 -8 -9 -8 -20 0 -20 33 -29 44
-11 5 8 105 59 198 100 76 34 89 32 107 -14 8 -22 25 -47 36 -57 19 -16 20
-16 1 -37 -11 -12 -25 -21 -33 -21 -20 0 -16 -14 12 -44 34 -36 32 -46 -10
-46 -25 0 -35 -4 -35 -15 0 -9 -14 -24 -30 -33 -23 -13 -30 -23 -28 -42 2 -20
9 -26 34 -28 22 -2 34 -9 37 -23 5 -20 7 -20 37 -4 29 15 34 15 47 2 22 -21 8
-52 -33 -76 -53 -31 -114 -26 -114 9 0 10 -7 23 -16 31 -25 20 -48 -1 -48 -45
-1 -29 -7 -41 -28 -54 -26 -15 -30 -16 -55 0 -35 21 -43 63 -14 71 12 3 24 13
28 24 4 10 16 25 27 34 28 23 12 43 -31 36 -34 -6 -34 -5 -28 24 6 25 4 29
-14 29 -11 0 -33 -16 -48 -35 -34 -43 -43 -44 -43 -5 0 42 -30 100 -52 100
-10 0 -24 -11 -30 -25 -14 -31 -42 -29 -46 4 -3 16 7 35 33 61 21 21 32 40 27
44 -6 3 -20 26 -31 49 -26 54 -29 151 -4 187 56 85 142 135 263 153 55 9 189
6 195 -3z m1515 -11 c121 -42 189 -98 210 -174 11 -38 11 -57 0 -103 -7 -31
-19 -64 -27 -73 -21 -25 -15 -51 18 -84 35 -34 36 -68 2 -73 -17 -3 -24 3 -29
22 -14 55 -58 21 -70 -54 -8 -49 -26 -52 -61 -10 -33 39 -53 39 -53 -1 0 -29
-2 -30 -29 -24 -35 7 -50 -18 -22 -37 10 -7 20 -22 22 -33 3 -12 14 -21 27
-23 32 -5 26 -48 -10 -70 -25 -15 -29 -15 -63 4 -35 19 -37 25 -20 66 9 23
-30 45 -51 27 -8 -6 -14 -17 -14 -25 0 -17 -31 -34 -63 -34 -28 0 -107 54
-107 73 0 7 9 18 20 25 16 10 24 10 39 0 16 -10 23 -9 38 4 10 9 32 18 48 20
24 2 31 8 33 29 2 19 -3 28 -23 37 -14 6 -29 22 -34 35 -8 19 -15 23 -39 19
-39 -5 -49 13 -17 34 23 15 35 54 18 54 -5 1 -19 10 -32 21 l-25 20 32 25 c25
20 32 33 32 61 0 33 1 35 28 29 40 -10 136 -50 140 -58 2 -5 8 -8 14 -8 15 0
99 -41 120 -58 10 -8 24 -12 33 -9 19 8 20 37 1 37 -7 0 -19 7 -26 15 -18 22
-189 105 -230 111 -48 8 -78 30 -62 46 17 17 15 43 -3 58 -11 9 -14 22 -10 41
4 15 1 30 -5 34 -5 3 -7 11 -4 17 9 14 206 4 254 -13z m-970 -155 c0 -30 3
-34 26 -34 22 0 25 -4 22 -27 -2 -20 -9 -29 -26 -31 -13 -2 -28 -15 -35 -29
-10 -22 -8 -28 16 -49 42 -36 33 -84 -15 -84 -5 0 -23 14 -39 31 l-29 31 -11
-31 c-6 -18 -24 -38 -40 -47 -20 -10 -29 -22 -29 -39 0 -21 5 -25 31 -25 24 0
32 -6 40 -30 12 -33 30 -38 49 -15 20 24 65 19 79 -9 33 -61 -79 -109 -176
-74 -26 10 -33 17 -33 39 0 34 -13 43 -46 35 -22 -6 -25 -11 -19 -34 10 -47
-47 -79 -115 -66 -43 9 -63 50 -35 70 12 9 30 12 48 8 26 -5 28 -4 22 15 -5
16 -1 23 19 31 14 5 30 18 36 29 8 16 7 22 -9 31 -11 5 -31 10 -44 10 -20 0
-24 4 -20 19 6 25 -11 35 -27 16 -14 -17 -60 -20 -60 -4 0 6 7 17 15 25 8 9
15 24 15 35 0 15 -7 19 -34 19 -48 0 -52 13 -15 50 l32 31 -22 30 c-37 49 -26
63 54 71 147 14 282 29 320 37 51 9 55 7 55 -35z m400 14 c41 -5 93 -12 115
-14 76 -9 105 -15 105 -23 0 -5 -12 -25 -26 -46 l-26 -38 31 -24 c40 -32 40
-51 -1 -55 -35 -3 -37 -9 -23 -60 6 -24 4 -28 -13 -28 -11 0 -22 7 -26 15 -9
24 -24 17 -28 -12 -2 -18 -8 -27 -17 -25 -8 2 -27 0 -42 -3 -39 -9 -38 -39 1
-57 20 -8 30 -20 30 -34 0 -28 9 -35 31 -23 20 10 59 -7 59 -27 0 -44 -103
-64 -155 -30 -22 14 -25 22 -20 46 7 33 -6 44 -41 36 -18 -5 -24 -13 -24 -35
0 -24 -6 -31 -31 -40 -101 -35 -200 13 -173 83 8 21 70 22 78 1 9 -25 31 -17
43 15 10 26 16 30 47 30 32 0 36 3 36 26 0 19 -7 28 -29 35 -19 7 -33 21 -40
40 -12 35 -21 36 -49 4 -24 -28 -34 -30 -63 -15 -26 14 -24 36 6 62 36 31 34
73 -5 87 -23 7 -30 16 -30 35 0 19 5 26 19 26 26 0 36 17 21 35 -23 28 -1 36
83 29 45 -3 116 -10 157 -16z m-272 -290 l20 -31 -21 -29 c-23 -32 -52 -36
-79 -11 -37 33 -11 103 38 103 14 0 29 -11 42 -32z m-550 -54 c26 -18 28 -50
5 -76 -22 -25 -55 -22 -76 7 -20 27 -12 55 21 74 23 14 24 14 50 -5z m1064 4
c27 -21 30 -53 9 -79 -16 -20 -23 -22 -47 -14 -23 8 -30 17 -32 44 -5 48 35
76 70 49z"/>
<path d="M6660 3003 c-25 -8 -60 -22 -78 -31 -52 -26 -135 -106 -156 -148 -10
-22 -25 -51 -32 -66 -20 -37 -19 -216 1 -242 8 -11 15 -26 15 -33 0 -24 71
-112 118 -146 85 -62 117 -72 227 -72 82 0 108 4 145 21 58 28 102 69 98 92
-5 28 -37 25 -69 -6 -60 -58 -197 -81 -272 -44 -87 42 -140 117 -172 242 -16
62 -16 68 3 141 32 121 79 189 156 225 89 41 218 24 286 -37 35 -32 65 -37 74
-13 10 26 7 31 -31 55 -68 41 -82 48 -144 63 -72 19 -108 19 -169 -1z"/>
<path d="M7740 3003 c-25 -8 -60 -22 -78 -31 -52 -26 -135 -106 -156 -148 -10
-22 -25 -51 -32 -66 -20 -37 -19 -216 1 -242 8 -11 15 -26 15 -33 0 -44 118
-158 205 -199 58 -28 216 -27 271 1 129 66 192 143 230 284 17 60 17 66 0 135
-10 39 -26 85 -35 101 -52 98 -143 170 -248 198 -73 20 -111 20 -173 0z m183
-62 c47 -22 96 -70 121 -118 9 -18 23 -46 31 -62 10 -20 15 -59 15 -126 0 -94
-4 -109 -41 -175 -5 -8 -13 -24 -18 -35 -25 -57 -129 -115 -205 -115 -64 0
-107 19 -164 74 -47 45 -72 91 -96 183 -16 58 -16 68 -1 130 30 128 84 205
169 244 54 24 135 24 189 0z"/>
<path d="M5947 2972 c-9 -21 -17 -44 -17 -50 0 -6 -9 -28 -19 -49 -32 -64 -71
-150 -71 -157 0 -6 -15 -42 -50 -121 -5 -11 -18 -42 -30 -70 -34 -81 -37 -87
-70 -158 -26 -55 -30 -70 -20 -82 23 -27 41 -15 66 43 25 57 29 65 58 132 8
19 17 45 21 58 6 21 10 22 141 22 l134 0 11 -27 c6 -16 17 -41 25 -56 8 -16
14 -36 14 -45 0 -9 7 -26 15 -36 8 -11 15 -28 15 -38 0 -29 40 -58 81 -58 47
0 58 23 29 62 -11 15 -20 32 -20 39 0 6 -6 23 -14 37 -15 30 -42 88 -64 142
-8 19 -21 48 -28 63 -8 16 -14 37 -14 47 0 9 -7 23 -15 30 -8 7 -15 19 -15 26
0 8 -13 43 -30 77 -16 35 -30 70 -30 78 0 8 -7 23 -15 33 -8 11 -15 30 -15 41
0 22 -28 55 -46 55 -6 0 -18 -17 -27 -38z m25 -149 c10 -9 18 -26 18 -38 0
-11 7 -30 15 -41 8 -10 15 -26 15 -34 0 -8 11 -37 25 -65 13 -27 25 -53 25
-57 0 -5 -49 -8 -110 -8 -116 0 -125 4 -100 48 17 31 48 106 65 160 10 28 20
52 23 52 3 0 14 -7 24 -17z"/>
<path d="M9428 2999 c-10 -5 -18 -19 -18 -30 0 -12 -6 -33 -13 -47 -8 -15 -21
-44 -30 -65 -9 -20 -23 -52 -31 -70 -13 -28 -33 -75 -68 -157 -20 -48 -40 -95
-53 -125 -8 -16 -23 -52 -35 -80 -11 -27 -27 -62 -35 -77 -19 -34 -19 -67 0
-75 19 -7 55 24 55 47 0 9 7 25 15 36 8 10 15 25 15 32 0 12 27 78 52 130 11
21 16 22 142 22 l131 0 18 -48 c11 -26 25 -60 32 -77 7 -16 21 -50 31 -75 22
-55 29 -60 77 -60 61 0 61 4 -44 226 -10 22 -19 47 -19 56 0 9 -7 21 -15 28
-8 7 -15 21 -15 30 0 10 -6 31 -14 47 -8 15 -21 44 -29 63 -22 52 -49 112 -62
140 -6 14 -20 51 -30 83 -20 58 -27 64 -57 46z m12 -174 c0 -8 7 -31 16 -52 9
-21 22 -53 30 -71 7 -18 21 -48 30 -67 19 -38 12 -70 -12 -61 -9 3 -54 6 -100
6 -79 0 -84 1 -84 21 0 11 6 33 14 47 8 15 27 59 42 97 14 39 31 78 36 88 10
19 28 14 28 -8z"/>
<path d="M4903 2993 c-21 -8 -15 -31 12 -49 l25 -16 2 -326 c3 -293 5 -327 19
-330 9 -2 23 4 32 12 13 14 14 52 10 289 -4 179 -3 276 4 280 6 4 24 -14 42
-38 17 -24 39 -52 49 -61 9 -10 26 -29 37 -44 17 -23 105 -126 140 -164 6 -6
37 -42 70 -81 32 -38 67 -79 77 -89 10 -11 28 -35 41 -53 24 -36 46 -48 59
-35 5 5 9 165 11 355 2 324 1 348 -15 353 -10 3 -27 2 -38 -1 -19 -6 -20 -15
-19 -173 0 -92 4 -205 8 -252 5 -47 7 -88 5 -92 -9 -15 -34 5 -75 59 -23 31
-49 63 -58 73 -9 9 -41 47 -71 85 -30 37 -60 73 -67 80 -23 24 -152 175 -165
193 -13 19 -106 35 -135 25z"/>
<path d="M8348 2993 c-25 -6 -22 -18 13 -47 l30 -26 -2 -316 c-1 -259 1 -318
12 -325 17 -11 21 -11 38 0 11 7 13 59 12 290 -2 304 0 316 48 246 13 -19 33
-45 45 -57 12 -13 37 -43 56 -68 19 -25 41 -52 49 -61 9 -9 27 -29 41 -45 14
-16 42 -49 63 -74 22 -25 62 -72 91 -104 28 -33 61 -74 74 -93 12 -18 26 -33
30 -33 31 1 33 17 34 360 1 301 -1 345 -15 354 -10 6 -23 6 -38 0 -22 -10 -22
-12 -20 -201 1 -105 6 -216 10 -246 13 -98 -4 -94 -96 19 -106 131 -158 193
-230 273 -23 25 -59 70 -80 98 -35 49 -41 53 -80 53 -23 0 -47 2 -55 4 -7 2
-21 2 -30 -1z"/>
<path d="M7160 2642 c0 -383 -3 -362 58 -362 55 0 53 -10 53 361 l0 344 -55 3
-56 3 0 -349z"/>
<path d="M9910 2640 c0 -273 3 -350 13 -351 19 -2 100 -5 231 -9 106 -3 120
-2 132 15 11 14 11 22 2 33 -9 11 -39 13 -142 11 l-131 -3 -3 327 -2 327 -50
0 -50 0 0 -350z"/>
<path d="M4233 2905 c-27 -26 -28 -31 -9 -38 18 -7 56 25 56 47 0 22 -20 18
-47 -9z"/>
<path d="M2900 2869 c-113 -5 -216 -13 -230 -18 -14 -5 -52 -13 -85 -16 -33
-4 -64 -10 -70 -15 -5 -4 -26 -10 -46 -14 -43 -8 -99 -34 -99 -46 0 -5 5 -12
10 -15 6 -3 10 -23 10 -44 0 -22 6 -44 15 -51 8 -7 15 -22 15 -35 0 -34 7 -35
62 -8 28 13 84 28 127 34 42 5 108 13 146 19 90 13 754 13 865 0 180 -21 236
-31 277 -50 24 -11 45 -20 48 -20 3 0 17 19 32 43 18 28 28 59 30 92 3 46 1
51 -25 62 -66 29 -234 61 -377 72 -189 15 -492 19 -705 10z m359 -46 c63 -36
22 -103 -64 -103 -41 0 -90 22 -98 45 -23 58 91 98 162 58z m-275 -19 c30 -29
9 -84 -32 -84 -9 0 -25 12 -35 25 -17 23 -17 26 -1 50 19 29 45 32 68 9z m474
8 c7 -5 14 -21 15 -37 1 -22 -4 -32 -25 -44 -26 -15 -28 -14 -48 6 -24 27 -25
32 -4 61 16 23 39 28 62 14z m-654 -21 c26 -29 12 -59 -37 -82 -52 -23 -90
-24 -122 -3 -60 39 -4 104 91 104 38 0 55 -5 68 -19z m926 -1 c46 -24 52 -52
18 -81 -31 -25 -85 -24 -132 4 -54 31 -64 49 -40 75 26 28 101 29 154 2z
m-1199 -40 c5 0 9 -15 9 -34 0 -26 -5 -35 -22 -39 -24 -7 -58 17 -58 39 0 20
31 46 47 40 8 -3 19 -6 24 -6z m1385 -4 c1 0 4 -10 8 -21 8 -28 -6 -45 -40
-48 -26 -2 -29 1 -32 32 -4 38 12 54 43 45 11 -4 21 -7 21 -8z"/>
<path d="M2795 2609 c-22 -4 -83 -13 -135 -18 -173 -19 -220 -33 -220 -66 0
-15 75 -45 112 -45 15 0 55 -6 90 -14 77 -17 324 -31 558 -31 211 0 524 19
563 34 16 6 48 11 72 11 24 0 46 4 50 9 3 5 19 12 35 16 17 4 30 12 30 20 0
32 -44 45 -255 72 -136 17 -831 27 -900 12z"/>
</g>
</svg>
